<svg width="1370" height="480" viewBox="0 0 1370 480" fill="none" xmlns="http://www.w3.org/2000/svg">
<path d="M11.0715 477.917C14.2789 479.285 17.8826 480.002 21.5458 480L788.992 480C793.484 479.993 797.861 478.906 801.516 476.888C805.171 474.87 807.922 472.022 809.387 468.74C812.404 462.038 818.045 456.227 825.528 452.116C833.011 448.004 841.965 445.795 851.146 445.795C860.327 445.795 869.28 448.004 876.763 452.116C884.246 456.227 889.888 462.038 892.904 468.74C894.369 472.022 897.12 474.87 900.775 476.888C904.43 478.906 908.808 479.993 913.299 480L1348.37 480C1351.21 480.002 1354.02 479.571 1356.64 478.731C1359.27 477.892 1361.65 476.662 1363.66 475.11C1365.67 473.558 1367.27 471.716 1368.35 469.688C1369.44 467.659 1370 465.486 1370 463.29L1370 16.7099C1370 14.5146 1369.44 12.3407 1368.35 10.3127C1367.27 8.28461 1365.67 6.44202 1363.66 4.89023C1361.65 3.33844 1359.27 2.10788 1356.64 1.2688C1354.02 0.429719 1351.21 -0.0014632 1348.37 1.89123e-06L913.372 3.99197e-05C908.881 0.00672366 904.503 1.09474 900.848 3.11262C897.193 5.1305 894.442 7.9781 892.977 11.26C889.961 17.9624 884.319 23.7729 876.836 27.8846C869.353 31.9964 860.4 34.2055 851.219 34.2056C842.037 34.2056 833.084 31.9964 825.601 27.8846C818.118 23.7729 812.477 17.9625 809.46 11.26C807.995 7.97811 805.244 5.13051 801.589 3.11263C797.934 1.09475 793.557 0.00673374 789.065 5.07869e-05L21.6186 0.000117879C18.779 -0.00137723 15.9669 0.429836 13.3432 1.26907C10.7194 2.1083 8.33553 3.33908 6.32772 4.89102C4.31978 6.44296 2.72738 8.28561 1.64168 10.3136C0.555867 12.3416 -0.00199382 14.5152 -4.05021e-05 16.71L-1.46081e-06 463.291C-0.0078137 466.27 1.0144 469.197 2.96094 471.768C4.90735 474.34 7.70752 476.463 11.0715 477.917ZM847.511 55.8044C847.503 55.2382 847.715 54.6831 848.119 54.2106C848.523 53.7382 849.1 53.3699 849.777 53.1531C850.454 52.9364 851.199 52.8811 851.917 52.9944C852.634 53.1077 853.292 53.3844 853.804 53.7888C854.485 54.3281 854.866 55.0512 854.868 55.8044L854.868 88.8636C854.871 89.4283 854.658 89.981 854.254 90.4517C853.85 90.9223 853.274 91.2895 852.6 91.5067C851.925 91.7239 851.183 91.7814 850.466 91.6717C849.749 91.5619 849.091 91.29 848.575 90.8904C847.891 90.3483 847.509 89.6207 847.511 88.8636L847.511 55.8044ZM847.511 112.442C847.508 111.877 847.721 111.324 848.125 110.854C848.529 110.383 849.105 110.016 849.779 109.799C850.454 109.581 851.196 109.524 851.913 109.634C852.63 109.744 853.288 110.016 853.804 110.415C854.486 110.959 854.867 111.685 854.868 112.442L854.868 145.501C854.871 146.066 854.658 146.619 854.254 147.089C853.85 147.56 853.274 147.927 852.6 148.144C851.925 148.361 851.183 148.419 850.466 148.309C849.749 148.199 849.091 147.927 848.575 147.528C847.891 146.986 847.509 146.258 847.511 145.501L847.511 112.442ZM847.511 169.079C847.479 168.691 847.551 168.302 847.722 167.936C847.892 167.569 848.158 167.234 848.503 166.95C848.847 166.667 849.264 166.441 849.726 166.286C850.188 166.131 850.686 166.052 851.19 166.052C851.693 166.052 852.191 166.131 852.653 166.286C853.115 166.441 853.532 166.667 853.876 166.95C854.221 167.234 854.487 167.569 854.657 167.936C854.828 168.302 854.9 168.691 854.868 169.079L854.868 202.184C854.864 202.746 854.647 203.295 854.242 203.762C853.837 204.229 853.262 204.594 852.591 204.81C851.919 205.027 851.18 205.085 850.466 204.978C849.751 204.872 849.094 204.605 848.575 204.21C847.891 203.668 847.509 202.941 847.511 202.184L847.511 169.079ZM847.511 225.706C847.479 225.317 847.551 224.928 847.722 224.562C847.892 224.196 848.158 223.86 848.503 223.577C848.847 223.293 849.264 223.067 849.726 222.912C850.188 222.758 850.686 222.678 851.19 222.678C851.693 222.678 852.191 222.758 852.653 222.912C853.115 223.067 853.532 223.293 853.876 223.577C854.221 223.86 854.487 224.196 854.657 224.562C854.828 224.928 854.9 225.317 854.868 225.706L854.868 258.787C854.862 259.349 854.642 259.896 854.236 260.362C853.83 260.827 853.255 261.19 852.584 261.405C851.913 261.62 851.175 261.677 850.462 261.57C849.749 261.463 849.093 261.196 848.575 260.803C847.894 260.264 847.513 259.541 847.511 258.787L847.511 225.706ZM847.511 282.343C847.509 281.97 847.603 281.599 847.786 281.254C847.97 280.908 848.24 280.594 848.581 280.329C848.922 280.065 849.328 279.855 849.774 279.711C850.22 279.568 850.699 279.494 851.182 279.494C852.162 279.493 853.103 279.788 853.804 280.316C854.483 280.861 854.864 281.587 854.868 282.343L854.868 315.402C854.871 315.967 854.658 316.52 854.254 316.991C853.85 317.461 853.274 317.828 852.6 318.046C851.925 318.263 851.183 318.32 850.466 318.21C849.749 318.101 849.091 317.829 848.575 317.429C847.889 316.888 847.507 316.16 847.511 315.402L847.511 282.343ZM847.511 338.981C847.503 338.414 847.715 337.859 848.119 337.387C848.523 336.915 849.1 336.546 849.777 336.329C850.454 336.113 851.199 336.057 851.917 336.171C852.634 336.284 853.292 336.561 853.804 336.965C854.485 337.504 854.866 338.227 854.868 338.981L854.868 372.04C854.871 372.605 854.658 373.157 854.254 373.628C853.85 374.099 853.274 374.466 852.6 374.683C851.925 374.9 851.183 374.958 850.466 374.848C849.749 374.738 849.091 374.466 848.575 374.067C847.891 373.525 847.509 372.797 847.511 372.04L847.511 338.981ZM847.511 395.618C847.509 395.244 847.603 394.873 847.786 394.527C847.97 394.181 848.239 393.866 848.58 393.601C848.921 393.335 849.326 393.124 849.773 392.979C850.219 392.835 850.698 392.76 851.182 392.758C851.669 392.755 852.151 392.827 852.601 392.97C853.051 393.113 853.459 393.323 853.802 393.59C854.146 393.856 854.417 394.173 854.6 394.521C854.782 394.869 854.874 395.242 854.868 395.618L854.868 428.677C854.9 429.066 854.828 429.455 854.657 429.821C854.487 430.187 854.221 430.523 853.876 430.806C853.532 431.09 853.115 431.316 852.653 431.471C852.191 431.625 851.693 431.705 851.19 431.705C850.686 431.705 850.188 431.625 849.726 431.471C849.264 431.316 848.847 431.09 848.503 430.806C848.158 430.523 847.892 430.187 847.722 429.821C847.551 429.455 847.479 429.066 847.511 428.677L847.511 395.618Z" fill="#FAFAFA"/>
</svg>
