<svg width="14" height="14" viewBox="0 0 14 14" fill="none" xmlns="http://www.w3.org/2000/svg">
<path d="M4.22332 1.16663H3.11499C1.83749 1.16663 1.16666 1.83746 1.16666 3.10913V4.21746C1.16666 5.48913 1.83749 6.15996 3.10916 6.15996H4.21749C5.48916 6.15996 6.15999 5.48913 6.15999 4.21746V3.10913C6.16582 1.83746 5.49499 1.16663 4.22332 1.16663Z" fill="#FAFAFA"/>
<path d="M10.8908 1.16663H9.7825C8.51083 1.16663 7.84 1.83746 7.84 3.10913V4.21746C7.84 5.48913 8.51083 6.15996 9.7825 6.15996H10.8908C12.1625 6.15996 12.8333 5.48913 12.8333 4.21746V3.10913C12.8333 1.83746 12.1625 1.16663 10.8908 1.16663Z" fill="#219CE4"/>
<path d="M10.8908 7.83411H9.7825C8.51083 7.83411 7.84 8.50494 7.84 9.77661V10.8849C7.84 12.1566 8.51083 12.8274 9.7825 12.8274H10.8908C12.1625 12.8274 12.8333 12.1566 12.8333 10.8849V9.77661C12.8333 8.50494 12.1625 7.83411 10.8908 7.83411Z" fill="#219CE4"/>
<path d="M4.22332 7.83411H3.11499C1.83749 7.83411 1.16666 8.50494 1.16666 9.77661V10.8849C1.16666 12.1624 1.83749 12.8333 3.10916 12.8333H4.21749C5.48916 12.8333 6.15999 12.1624 6.15999 10.8908V9.78244C6.16582 8.50494 5.49499 7.83411 4.22332 7.83411Z" fill="#219CE4"/>
</svg>
