<svg width="15" height="14" viewBox="0 0 15 14" fill="none" xmlns="http://www.w3.org/2000/svg">
<path d="M12.2427 3.97832L8.88267 1.62748C7.96683 0.985817 6.561 1.02082 5.68017 1.70332L2.75767 3.98415C2.17433 4.43915 1.7135 5.37248 1.7135 6.10748V10.1325C1.7135 11.62 2.921 12.8333 4.4085 12.8333H10.6968C12.1843 12.8333 13.3918 11.6258 13.3918 10.1383V6.18332C13.3918 5.39582 12.8843 4.42748 12.2427 3.97832ZM7.99017 10.5C7.99017 10.7392 7.79183 10.9375 7.55267 10.9375C7.3135 10.9375 7.11517 10.7392 7.11517 10.5V8.74998C7.11517 8.51082 7.3135 8.31248 7.55267 8.31248C7.79183 8.31248 7.99017 8.51082 7.99017 8.74998V10.5Z" fill="#1B1B1B"/>
</svg>
