<svg width="114" height="32" viewBox="0 0 114 32" fill="none" xmlns="http://www.w3.org/2000/svg">
<path d="M13.2244 32C10.601 32 8.12815 31.8057 5.80582 31.417C3.5265 31.0715 1.72024 30.6181 0.387055 30.0567V21.3117C1.89227 22.0027 3.67702 22.5425 5.74131 22.9312C7.84861 23.3198 9.63336 23.5142 11.0956 23.5142C12.6438 23.5142 13.8049 23.471 14.5791 23.3846C15.3962 23.2982 15.8047 22.9312 15.8047 22.2834C15.8047 21.5493 15.0951 20.9879 13.6759 20.5992C12.2567 20.2105 10.472 19.6491 8.32167 18.915C5.52628 17.9217 3.44049 16.7557 2.06429 15.417C0.688097 14.0783 0 12.135 0 9.58704C0 6.52092 1.20417 4.16734 3.61251 2.52632C6.02085 0.842105 9.80538 0 14.9661 0C16.9444 0 18.9872 0.151147 21.0945 0.453441C23.2018 0.755735 24.8575 1.10121 26.0617 1.48988V10.0405C24.7715 9.47908 23.3523 9.06883 21.8041 8.80972C20.2989 8.55061 18.9227 8.42105 17.6755 8.42105C16.2993 8.42105 15.0736 8.48583 13.9985 8.61539C12.9233 8.74494 12.3857 9.11201 12.3857 9.7166C12.3857 10.4076 12.9878 10.9042 14.192 11.2065C15.4392 11.5088 17.0949 11.9838 19.1592 12.6316C21.4815 13.3225 23.2878 14.0783 24.578 14.8988C25.9112 15.7193 26.8358 16.7126 27.3519 17.8785C27.9109 19.0445 28.1905 20.4912 28.1905 22.2186C28.1905 25.3279 26.9218 27.7463 24.3844 29.4737C21.8901 31.1579 18.1701 32 13.2244 32Z" fill="#219CE4"/>
<path d="M6.84344 21.7143C12.3122 23.1566 9.65682 27.3811 8.42054 32C12.2068 27.8779 17.2852 24.0207 25.1428 28.0706C20.901 25.8846 18.3138 20.1847 22.8499 16.1017C19.3797 16.6467 15.8072 19.3386 15.0171 13.9247C12.9845 19.1579 11.172 13.7531 9.25712 11.4286C8.83573 17.4386 9.97596 20.6996 2.28564 20.01" fill="#1B1B1B"/>
<path d="M44.7904 23.2C43.9771 23.2 43.2104 23.14 42.4904 23.02C41.7838 22.9133 41.2238 22.7733 40.8104 22.6V19.9C41.2771 20.1133 41.8304 20.28 42.4704 20.4C43.1238 20.52 43.6771 20.58 44.1304 20.58C44.6104 20.58 44.9704 20.5667 45.2104 20.54C45.4638 20.5133 45.5904 20.4 45.5904 20.2C45.5904 19.9733 45.3704 19.8 44.9304 19.68C44.4904 19.56 43.9371 19.3867 43.2704 19.16C42.4038 18.8533 41.7571 18.4933 41.3304 18.08C40.9038 17.6667 40.6904 17.0667 40.6904 16.28C40.6904 15.3333 41.0638 14.6067 41.8104 14.1C42.5571 13.58 43.7304 13.32 45.3304 13.32C45.9438 13.32 46.5771 13.3667 47.2304 13.46C47.8838 13.5533 48.3971 13.66 48.7704 13.78V16.42C48.3704 16.2467 47.9304 16.12 47.4504 16.04C46.9838 15.96 46.5571 15.92 46.1704 15.92C45.7438 15.92 45.3638 15.94 45.0304 15.98C44.6971 16.02 44.5304 16.1333 44.5304 16.32C44.5304 16.5333 44.7171 16.6867 45.0904 16.78C45.4771 16.8733 45.9904 17.02 46.6304 17.22C47.3504 17.4333 47.9104 17.6667 48.3104 17.92C48.7238 18.1733 49.0104 18.48 49.1704 18.84C49.3438 19.2 49.4304 19.6467 49.4304 20.18C49.4304 21.14 49.0371 21.8867 48.2504 22.42C47.4771 22.94 46.3238 23.2 44.7904 23.2ZM50.4365 18.76V15.88H58.5365V18.76H50.4365ZM63.9981 23.2C62.7314 23.2 61.8114 22.88 61.2381 22.24C60.6648 21.6 60.3781 20.7333 60.3781 19.64V16.3H59.1381V13.52H60.3781V11.58L64.1381 10.68V13.52H66.3181L66.1781 16.3H64.1381V19.36C64.1381 19.76 64.2381 20.0467 64.4381 20.22C64.6381 20.38 64.9448 20.46 65.3581 20.46C65.7448 20.46 66.1381 20.3933 66.5381 20.26V22.76C65.8314 23.0533 64.9848 23.2 63.9981 23.2ZM68.1957 12.26V9.54H72.2557V12.26H68.1957ZM68.4957 23V16.26H67.1157L67.4357 13.52H72.2557V23H68.4957ZM79.2392 23.2C77.5192 23.2 76.1592 22.7933 75.1592 21.98C74.1592 21.1533 73.6592 19.9133 73.6592 18.26C73.6592 17.14 73.8925 16.2133 74.3592 15.48C74.8258 14.7467 75.4792 14.2067 76.3192 13.86C77.1592 13.5 78.1392 13.32 79.2592 13.32C79.9658 13.32 80.5992 13.3733 81.1592 13.48C81.7192 13.5733 82.2525 13.74 82.7592 13.98V16.62C81.9725 16.2467 81.0792 16.06 80.0792 16.06C79.2258 16.06 78.5792 16.22 78.1392 16.54C77.7125 16.86 77.4992 17.4333 77.4992 18.26C77.4992 19.0333 77.7058 19.5933 78.1192 19.94C78.5325 20.2867 79.1858 20.46 80.0792 20.46C80.5592 20.46 81.0258 20.4067 81.4792 20.3C81.9325 20.18 82.3658 20.0133 82.7792 19.8V22.56C82.2725 22.7867 81.7258 22.9467 81.1392 23.04C80.5658 23.1467 79.9325 23.2 79.2392 23.2ZM84.1764 23V9.52H87.9364V16.18L90.5764 13.52H94.8364L91.0564 17.52L95.0564 23H91.0564L88.7164 19.48L87.9364 20.26V23H84.1764ZM100.275 23.2C99.1686 23.2 98.1886 23.02 97.3353 22.66C96.4953 22.2867 95.8353 21.7333 95.3553 21C94.8886 20.2667 94.6553 19.36 94.6553 18.28C94.6553 16.7733 95.0819 15.5733 95.9353 14.68C96.7886 13.7733 98.0619 13.32 99.7553 13.32C101.302 13.32 102.509 13.7133 103.375 14.5C104.255 15.2867 104.695 16.36 104.695 17.72V19.38H98.1153C98.2886 19.8867 98.6286 20.2467 99.1353 20.46C99.6419 20.6733 100.329 20.78 101.195 20.78C101.742 20.78 102.289 20.7333 102.835 20.64C103.395 20.5333 103.842 20.4133 104.175 20.28V22.54C103.242 22.98 101.942 23.2 100.275 23.2ZM98.1153 17.34H101.455V17C101.455 16.6267 101.335 16.32 101.095 16.08C100.869 15.84 100.462 15.72 99.8753 15.72C99.2219 15.72 98.7619 15.86 98.4953 16.14C98.2419 16.4067 98.1153 16.8067 98.1153 17.34ZM110.15 23.2C108.884 23.2 107.964 22.88 107.39 22.24C106.817 21.6 106.53 20.7333 106.53 19.64V16.3H105.29V13.52H106.53V11.58L110.29 10.68V13.52H112.47L112.33 16.3H110.29V19.36C110.29 19.76 110.39 20.0467 110.59 20.22C110.79 20.38 111.097 20.46 111.51 20.46C111.897 20.46 112.29 20.3933 112.69 20.26V22.76C111.984 23.0533 111.137 23.2 110.15 23.2Z" fill="#FAFAFA"/>
</svg>
