<svg width="20" height="20" viewBox="0 0 20 20" fill="none" xmlns="http://www.w3.org/2000/svg">
<path d="M7.49996 1.66675C5.31663 1.66675 3.54163 3.44175 3.54163 5.62508C3.54163 7.76675 5.21663 9.50008 7.39996 9.57508C7.46663 9.56675 7.53329 9.56675 7.58329 9.57508C7.59996 9.57508 7.60829 9.57508 7.62496 9.57508C7.63329 9.57508 7.63329 9.57508 7.64163 9.57508C9.77496 9.50008 11.45 7.76675 11.4583 5.62508C11.4583 3.44175 9.68329 1.66675 7.49996 1.66675Z" fill="#1B1B1B"/>
<path d="M11.7333 11.7918C9.4083 10.2418 5.61663 10.2418 3.27497 11.7918C2.21663 12.5001 1.6333 13.4584 1.6333 14.4834C1.6333 15.5084 2.21663 16.4584 3.26663 17.1584C4.4333 17.9418 5.96663 18.3334 7.49997 18.3334C9.0333 18.3334 10.5666 17.9418 11.7333 17.1584C12.7833 16.4501 13.3666 15.5001 13.3666 14.4668C13.3583 13.4418 12.7833 12.4918 11.7333 11.7918Z" fill="#1B1B1B"/>
<path d="M16.6583 6.11683C16.7916 7.7335 15.6416 9.15016 14.05 9.34183C14.0416 9.34183 14.0416 9.34183 14.0333 9.34183H14.0083C13.9583 9.34183 13.9083 9.34183 13.8666 9.3585C13.0583 9.40016 12.3166 9.14183 11.7583 8.66683C12.6166 7.90016 13.1083 6.75016 13.0083 5.50016C12.95 4.82516 12.7166 4.2085 12.3666 3.6835C12.6833 3.52516 13.05 3.42516 13.425 3.39183C15.0583 3.25016 16.5166 4.46683 16.6583 6.11683Z" fill="#1B1B1B"/>
<path d="M18.325 13.8252C18.2583 14.6335 17.7417 15.3335 16.875 15.8085C16.0417 16.2668 14.9917 16.4835 13.95 16.4585C14.55 15.9168 14.9 15.2418 14.9667 14.5252C15.05 13.4918 14.5583 12.5002 13.575 11.7085C13.0167 11.2668 12.3667 10.9168 11.6583 10.6585C13.5 10.1252 15.8167 10.4835 17.2417 11.6335C18.0083 12.2502 18.4 13.0252 18.325 13.8252Z" fill="#1B1B1B"/>
</svg>
