<svg width="15" height="14" viewBox="0 0 15 14" fill="none" xmlns="http://www.w3.org/2000/svg">
<path d="M13.386 6.27087C13.6252 6.27087 13.8235 6.07254 13.8235 5.83337V5.25004C13.8235 2.67754 13.0418 1.89587 10.4693 1.89587H6.8235V3.20837C6.8235 3.44754 6.62516 3.64587 6.386 3.64587C6.14683 3.64587 5.9485 3.44754 5.9485 3.20837V1.89587H4.636C2.0635 1.89587 1.28183 2.67754 1.28183 5.25004V5.54171C1.28183 5.78087 1.48016 5.97921 1.71933 5.97921C2.27933 5.97921 2.74016 6.44004 2.74016 7.00004C2.74016 7.56004 2.27933 8.02087 1.71933 8.02087C1.48016 8.02087 1.28183 8.21921 1.28183 8.45837V8.75004C1.28183 11.3225 2.0635 12.1042 4.636 12.1042H5.9485V10.7917C5.9485 10.5525 6.14683 10.3542 6.386 10.3542C6.62516 10.3542 6.8235 10.5525 6.8235 10.7917V12.1042H10.4693C13.0418 12.1042 13.8235 11.3225 13.8235 8.75004C13.8235 8.51087 13.6252 8.31254 13.386 8.31254C12.826 8.31254 12.3652 7.85171 12.3652 7.29171C12.3652 6.73171 12.826 6.27087 13.386 6.27087ZM6.8235 8.26587C6.8235 8.50504 6.62516 8.70337 6.386 8.70337C6.14683 8.70337 5.9485 8.50504 5.9485 8.26587V5.73421C5.9485 5.49504 6.14683 5.29671 6.386 5.29671C6.62516 5.29671 6.8235 5.49504 6.8235 5.73421V8.26587Z" fill="#1B1B1B"/>
</svg>
